<?xml version="1.0" encoding="UTF-8"?><svg id="Capa_1" xmlns="http://www.w3.org/2000/svg" viewBox="0 0 594.867 224.463"><path d="M108.564,131.074v31.42H0V0h36.579v131.074h71.985Z" style="fill:#ff204e;"/><path d="M176.793,35.875c10.318,0,18.912,1.172,25.793,3.517,6.877,2.345,12.387,5.708,16.531,10.083,4.14,4.378,7.071,9.694,8.793,15.945,1.718,6.254,2.578,13.212,2.578,20.869v72.689c-5.004,1.095-11.958,2.385-20.868,3.868-8.91,1.484-19.697,2.228-32.359,2.228-7.973,0-15.204-.704-21.689-2.11-6.489-1.408-12.076-3.711-16.765-6.918-4.69-3.202-8.288-7.386-10.786-12.545-2.503-5.158-3.752-11.49-3.752-18.992,0-7.189,1.444-13.285,4.338-18.29,2.891-5.001,6.76-8.987,11.606-11.959,4.844-2.967,10.394-5.118,16.648-6.449,6.251-1.325,12.739-1.992,19.461-1.992,4.533,0,8.559.198,12.077.586,3.517.393,6.367.902,8.558,1.524v-3.283c0-5.938-1.799-10.705-5.392-14.302-3.598-3.595-9.849-5.393-18.759-5.393-5.943,0-11.804.433-17.586,1.29-5.785.861-10.787,2.074-15.007,3.635l-4.455-28.138c2.03-.623,4.573-1.29,7.62-1.992,3.049-.704,6.368-1.326,9.966-1.876,3.593-.546,7.386-1.015,11.372-1.408,3.986-.388,8.008-.586,12.076-.586ZM179.607,138.109c3.437,0,6.719-.077,9.849-.235,3.124-.154,5.627-.388,7.503-.704v-26.496c-1.406-.311-3.517-.623-6.331-.938-2.814-.311-5.393-.468-7.738-.468-3.282,0-6.371.197-9.261.586-2.894.391-5.434,1.135-7.62,2.227-2.191,1.096-3.909,2.579-5.159,4.455-1.253,1.876-1.876,4.22-1.876,7.035,0,5.474,1.836,9.263,5.51,11.373,3.671,2.11,8.712,3.165,15.124,3.165Z" style="fill:#ff204e;"/><path d="M367.423,158.274c-5.943,1.722-13.6,3.323-22.979,4.806-9.378,1.484-19.227,2.228-29.544,2.228-10.475,0-19.19-1.408-26.145-4.22-6.957-2.814-12.467-6.76-16.531-11.842-4.066-5.078-6.957-11.137-8.676-18.172-1.722-7.035-2.579-14.773-2.579-23.214V39.157h34.938v64.482c0,11.255,1.483,19.385,4.455,24.386,2.967,5.004,8.518,7.504,16.648,7.504,2.498,0,5.158-.118,7.972-.351,2.814-.235,5.312-.506,7.504-.822V39.157h34.937v119.116Z" style="fill:#ff204e;"/><path d="M474.578,70.109c-3.129-.78-6.8-1.601-11.02-2.463-4.22-.857-8.757-1.29-13.6-1.29-2.191,0-4.808.198-7.855.587-3.049.391-5.357.821-6.918,1.29v94.26h-34.937V45.724c6.251-2.188,13.636-4.258,22.158-6.214,8.519-1.953,18.015-2.931,28.489-2.931,1.877,0,4.14.117,6.8.351,2.656.235,5.313.549,7.973.938,2.656.391,5.312.861,7.972,1.406,2.656.549,4.924,1.213,6.8,1.994l-5.862,28.841Z" style="fill:#ff204e;"/><path d="M541.171,35.875c10.318,0,18.912,1.172,25.793,3.517,6.877,2.345,12.387,5.708,16.531,10.083,4.14,4.378,7.071,9.694,8.793,15.945,1.718,6.254,2.578,13.212,2.578,20.869v72.689c-5.004,1.095-11.958,2.385-20.868,3.868-8.91,1.484-19.697,2.228-32.359,2.228-7.973,0-15.204-.704-21.689-2.11-6.489-1.408-12.076-3.711-16.765-6.918-4.69-3.202-8.288-7.386-10.786-12.545-2.503-5.158-3.752-11.49-3.752-18.992,0-7.189,1.444-13.285,4.338-18.29,2.891-5.001,6.76-8.987,11.606-11.959,4.844-2.967,10.394-5.118,16.648-6.449,6.251-1.325,12.739-1.992,19.461-1.992,4.533,0,8.559.198,12.077.586,3.517.393,6.367.902,8.558,1.524v-3.283c0-5.938-1.799-10.705-5.392-14.302-3.598-3.595-9.849-5.393-18.759-5.393-5.943,0-11.804.433-17.586,1.29-5.785.861-10.787,2.074-15.007,3.635l-4.455-28.138c2.03-.623,4.573-1.29,7.62-1.992,3.049-.704,6.368-1.326,9.966-1.876,3.593-.546,7.386-1.015,11.372-1.408,3.986-.388,8.008-.586,12.076-.586ZM543.985,138.109c3.437,0,6.719-.077,9.849-.235,3.124-.154,5.627-.388,7.503-.704v-26.496c-1.406-.311-3.517-.623-6.331-.938-2.814-.311-5.393-.468-7.738-.468-3.282,0-6.371.197-9.261.586-2.894.391-5.434,1.135-7.62,2.227-2.191,1.096-3.909,2.579-5.159,4.455-1.253,1.876-1.876,4.22-1.876,7.035,0,5.474,1.836,9.263,5.51,11.373,3.671,2.11,8.712,3.165,15.124,3.165Z" style="fill:#ff204e;"/><g style="opacity:.9;"><path d="M16.579,198.287c2.189,1.115,3.88,2.714,5.074,4.799,1.193,2.084,1.789,4.516,1.789,7.296s-.596,5.192-1.789,7.237c-1.194,2.045-2.885,3.612-5.074,4.7-2.19,1.089-4.74,1.633-7.65,1.633H0v-27.337h8.929c2.91,0,5.46.557,7.65,1.672ZM16.285,217.697c1.704-1.73,2.556-4.169,2.556-7.315,0-3.173-.852-5.651-2.556-7.435-1.705-1.782-4.157-2.674-7.356-2.674h-4.445v20.02h4.445c3.199,0,5.65-.866,7.356-2.597Z" style="fill:#fff;"/><path d="M36.305,200.233v8.024h9.441v3.658h-9.441v8.379h10.62v3.658h-15.104v-27.376h15.104v3.658h-10.62Z" style="fill:#fff;"/><path d="M60.415,223.264c-1.469-.642-2.622-1.554-3.461-2.734-.84-1.18-1.259-2.556-1.259-4.13h4.798c.105,1.18.571,2.151,1.397,2.91.825.762,1.986,1.141,3.48,1.141,1.547,0,2.754-.374,3.619-1.121.866-.747,1.299-1.711,1.299-2.891,0-.917-.269-1.664-.806-2.241-.538-.576-1.207-1.023-2.006-1.338-.801-.314-1.909-.654-3.324-1.022-1.784-.472-3.232-.95-4.347-1.436-1.115-.485-2.065-1.239-2.851-2.262-.787-1.022-1.18-2.386-1.18-4.09,0-1.574.393-2.951,1.18-4.13.786-1.18,1.887-2.085,3.304-2.714,1.416-.63,3.055-.945,4.916-.945,2.648,0,4.818.663,6.51,1.987,1.691,1.325,2.628,3.141,2.812,5.448h-4.957c-.078-.996-.551-1.849-1.415-2.558-.866-.708-2.007-1.061-3.422-1.061-1.285,0-2.334.327-3.147.983s-1.22,1.599-1.22,2.832c0,.839.256,1.528.767,2.065s1.16.964,1.947,1.278c.787.315,1.862.656,3.225,1.023,1.809.498,3.285.996,4.425,1.494,1.141.498,2.111,1.265,2.912,2.301.799,1.036,1.199,2.419,1.199,4.15,0,1.39-.374,2.702-1.121,3.934-.747,1.233-1.836,2.223-3.265,2.97-1.43.747-3.114,1.121-5.055,1.121-1.835,0-3.488-.322-4.955-.964Z" style="fill:#fff;"/><path d="M100.535,218.366h-11.446l-1.967,5.585h-4.681l9.795-27.376h5.192l9.794,27.376h-4.72l-1.967-5.585ZM99.276,214.709l-4.445-12.705-4.484,12.705h8.929Z" style="fill:#fff;"/><path d="M129.601,223.952l-6.293-10.935h-3.422v10.935h-4.484v-27.337h9.441c2.097,0,3.874.367,5.33,1.101,1.455.735,2.543,1.718,3.265,2.951.72,1.233,1.081,2.609,1.081,4.13,0,1.784-.517,3.402-1.554,4.857-1.035,1.455-2.629,2.446-4.779,2.97l6.766,11.328h-5.35ZM119.886,209.437h4.957c1.677,0,2.943-.419,3.795-1.259.852-.839,1.279-1.966,1.279-3.382s-.42-2.524-1.259-3.324c-.84-.8-2.111-1.199-3.815-1.199h-4.957v9.164Z" style="fill:#fff;"/><path d="M158.392,223.952l-6.293-10.935h-3.422v10.935h-4.484v-27.337h9.441c2.097,0,3.874.367,5.33,1.101,1.455.735,2.543,1.718,3.265,2.951.72,1.233,1.081,2.609,1.081,4.13,0,1.784-.517,3.402-1.554,4.857-1.035,1.455-2.629,2.446-4.779,2.97l6.766,11.328h-5.35ZM148.677,209.437h4.957c1.677,0,2.943-.419,3.795-1.259.852-.839,1.279-1.966,1.279-3.382s-.42-2.524-1.259-3.324c-.84-.8-2.111-1.199-3.815-1.199h-4.957v9.164Z" style="fill:#fff;"/><path d="M178.433,222.437c-2.138-1.193-3.829-2.858-5.074-4.996-1.245-2.137-1.868-4.542-1.868-7.217s.623-5.074,1.868-7.198,2.936-3.783,5.074-4.976c2.137-1.193,4.477-1.79,7.022-1.79,2.569,0,4.922.598,7.06,1.79s3.822,2.851,5.055,4.976c1.232,2.124,1.848,4.523,1.848,7.198s-.616,5.081-1.848,7.217c-1.233,2.138-2.917,3.803-5.055,4.996-2.138,1.194-4.491,1.79-7.06,1.79-2.544,0-4.885-.596-7.022-1.79ZM190.292,219.095c1.416-.826,2.524-2.007,3.324-3.54.8-1.535,1.199-3.31,1.199-5.33s-.4-3.789-1.199-5.311c-.8-1.52-1.908-2.687-3.324-3.5-1.415-.813-3.028-1.22-4.837-1.22s-3.422.407-4.838,1.22c-1.416.813-2.524,1.98-3.324,3.5-.801,1.521-1.199,3.291-1.199,5.311s.399,3.795,1.199,5.33c.8,1.533,1.908,2.714,3.324,3.54,1.416.825,3.029,1.239,4.838,1.239s3.422-.413,4.837-1.239Z" style="fill:#fff;"/><path d="M212.24,220.333h9.244v3.619h-13.728v-27.337h4.484v23.718Z" style="fill:#fff;"/><path d="M233.636,220.333h9.244v3.619h-13.728v-27.337h4.484v23.718Z" style="fill:#fff;"/><path d="M255.996,222.437c-2.138-1.193-3.829-2.858-5.074-4.996-1.245-2.137-1.868-4.542-1.868-7.217s.623-5.074,1.868-7.198,2.936-3.783,5.074-4.976c2.137-1.193,4.477-1.79,7.022-1.79,2.569,0,4.922.598,7.06,1.79s3.822,2.851,5.055,4.976c1.232,2.124,1.848,4.523,1.848,7.198s-.616,5.081-1.848,7.217c-1.233,2.138-2.917,3.803-5.055,4.996-2.138,1.194-4.491,1.79-7.06,1.79-2.544,0-4.885-.596-7.022-1.79ZM267.855,219.095c1.416-.826,2.524-2.007,3.324-3.54.8-1.535,1.199-3.31,1.199-5.33s-.4-3.789-1.199-5.311c-.8-1.52-1.908-2.687-3.324-3.5-1.415-.813-3.028-1.22-4.837-1.22s-3.422.407-4.838,1.22c-1.416.813-2.524,1.98-3.324,3.5-.801,1.521-1.199,3.291-1.199,5.311s.399,3.795,1.199,5.33c.8,1.533,1.908,2.714,3.324,3.54,1.416.825,3.029,1.239,4.838,1.239s3.422-.413,4.837-1.239Z" style="fill:#fff;"/><path d="M320.601,223.952l-3.383-3.383c-1.312,1.312-2.741,2.288-4.288,2.931-1.548.642-3.278.964-5.192.964-1.941,0-3.658-.342-5.152-1.023-1.495-.681-2.649-1.659-3.462-2.931-.813-1.271-1.218-2.746-1.218-4.425,0-1.887.537-3.572,1.613-5.054,1.074-1.481,2.674-2.655,4.798-3.52-.761-.918-1.298-1.777-1.613-2.577-.314-.8-.471-1.684-.471-2.655,0-1.206.307-2.282.924-3.225s1.501-1.692,2.656-2.243c1.153-.551,2.491-.825,4.012-.825,1.547,0,2.865.295,3.952.885,1.088.591,1.901,1.396,2.439,2.419.537,1.023.753,2.163.649,3.422h-4.484c.026-.969-.21-1.723-.708-2.262-.498-.537-1.18-.806-2.045-.806s-1.568.256-2.105.767-.805,1.135-.805,1.868c0,.708.202,1.409.609,2.104s1.121,1.593,2.144,2.694l7.237,7.198,2.792-4.601h4.838l-3.539,6.057-.984,1.613,6.647,6.608h-5.86ZM314.267,217.619l-7.237-7.277c-3.094,1.233-4.64,3.095-4.64,5.585,0,1.338.497,2.459,1.494,3.364.996.905,2.281,1.357,3.854,1.357,2.465,0,4.642-1.01,6.529-3.029Z" style="fill:#fff;"/><path d="M351.555,223.264c-1.469-.642-2.622-1.554-3.461-2.734-.84-1.18-1.259-2.556-1.259-4.13h4.798c.105,1.18.571,2.151,1.397,2.91.825.762,1.986,1.141,3.48,1.141,1.547,0,2.754-.374,3.619-1.121.866-.747,1.299-1.711,1.299-2.891,0-.917-.269-1.664-.806-2.241-.538-.576-1.207-1.023-2.006-1.338-.801-.314-1.909-.654-3.324-1.022-1.784-.472-3.232-.95-4.347-1.436-1.115-.485-2.065-1.239-2.851-2.262-.787-1.022-1.18-2.386-1.18-4.09,0-1.574.393-2.951,1.18-4.13.786-1.18,1.887-2.085,3.304-2.714,1.416-.63,3.055-.945,4.916-.945,2.648,0,4.818.663,6.51,1.987,1.691,1.325,2.628,3.141,2.812,5.448h-4.957c-.078-.996-.551-1.849-1.415-2.558-.866-.708-2.007-1.061-3.422-1.061-1.285,0-2.334.327-3.147.983-.813.656-1.22,1.599-1.22,2.832,0,.839.256,1.528.767,2.065s1.16.964,1.947,1.278c.787.315,1.862.656,3.225,1.023,1.809.498,3.285.996,4.425,1.494,1.141.498,2.111,1.265,2.912,2.301.799,1.036,1.199,2.419,1.199,4.15,0,1.39-.374,2.702-1.121,3.934-.747,1.233-1.836,2.223-3.265,2.97-1.43.747-3.114,1.121-5.055,1.121-1.835,0-3.488-.322-4.955-.964Z" style="fill:#fff;"/><path d="M379.677,200.233v8.024h9.441v3.658h-9.441v8.379h10.62v3.658h-15.104v-27.376h15.104v3.658h-10.62Z" style="fill:#fff;"/><path d="M419.522,204.482c-.708-1.364-1.691-2.392-2.95-3.088-1.259-.694-2.714-1.042-4.366-1.042-1.809,0-3.422.407-4.838,1.22s-2.524,1.967-3.324,3.461c-.801,1.494-1.199,3.225-1.199,5.192s.399,3.703,1.199,5.211c.8,1.509,1.908,2.669,3.324,3.481,1.416.813,3.029,1.22,4.838,1.22,2.438,0,4.418-.681,5.939-2.046,1.52-1.363,2.451-3.211,2.792-5.545h-10.266v-3.579h15.065v3.5c-.289,2.124-1.043,4.078-2.262,5.861-1.22,1.784-2.807,3.205-4.76,4.267-1.953,1.062-4.123,1.593-6.509,1.593-2.571,0-4.917-.595-7.042-1.789-2.123-1.193-3.808-2.851-5.054-4.976s-1.868-4.523-1.868-7.198.623-5.074,1.868-7.198,2.936-3.783,5.074-4.976c2.137-1.193,4.477-1.79,7.022-1.79,2.91,0,5.499.715,7.768,2.144,2.268,1.43,3.913,3.454,4.936,6.077h-5.389Z" style="fill:#fff;"/><path d="M438.519,196.615v17.425c0,2.072.544,3.632,1.633,4.681,1.088,1.049,2.601,1.574,4.542,1.574,1.967,0,3.495-.525,4.582-1.574s1.633-2.609,1.633-4.681v-17.425h4.484v17.347c0,2.228-.486,4.117-1.455,5.663-.971,1.548-2.269,2.701-3.894,3.461-1.626.761-3.422,1.141-5.389,1.141s-3.756-.381-5.369-1.141c-1.613-.761-2.891-1.913-3.835-3.461-.944-1.547-1.416-3.435-1.416-5.663v-17.347h4.484Z" style="fill:#fff;"/><path d="M479.346,223.952l-6.293-10.935h-3.422v10.935h-4.484v-27.337h9.441c2.097,0,3.874.367,5.33,1.101,1.455.735,2.543,1.718,3.265,2.951.72,1.233,1.081,2.609,1.081,4.13,0,1.784-.517,3.402-1.554,4.857-1.035,1.455-2.629,2.446-4.779,2.97l6.766,11.328h-5.35ZM469.631,209.437h4.957c1.677,0,2.943-.419,3.795-1.259.852-.839,1.279-1.966,1.279-3.382s-.42-2.524-1.259-3.324c-.84-.8-2.111-1.199-3.815-1.199h-4.957v9.164Z" style="fill:#fff;"/><path d="M498.423,196.615v27.337h-4.484v-27.337h4.484Z" style="fill:#fff;"/><path d="M524.835,198.287c2.189,1.115,3.88,2.714,5.074,4.799,1.193,2.084,1.789,4.516,1.789,7.296s-.596,5.192-1.789,7.237c-1.194,2.045-2.885,3.612-5.074,4.7-2.19,1.089-4.74,1.633-7.65,1.633h-8.929v-27.337h8.929c2.91,0,5.46.557,7.65,1.672ZM524.54,217.697c1.704-1.73,2.556-4.169,2.556-7.315,0-3.173-.852-5.651-2.556-7.435-1.705-1.782-4.157-2.674-7.356-2.674h-4.445v20.02h4.445c3.199,0,5.65-.866,7.356-2.597Z" style="fill:#fff;"/><path d="M556.557,218.366h-11.446l-1.967,5.585h-4.681l9.795-27.376h5.192l9.794,27.376h-4.72l-1.967-5.585ZM555.298,214.709l-4.445-12.705-4.484,12.705h8.929Z" style="fill:#fff;"/><path d="M588.004,198.287c2.189,1.115,3.88,2.714,5.074,4.799,1.193,2.084,1.789,4.516,1.789,7.296s-.596,5.192-1.789,7.237c-1.194,2.045-2.885,3.612-5.074,4.7-2.19,1.089-4.74,1.633-7.65,1.633h-8.929v-27.337h8.929c2.91,0,5.46.557,7.65,1.672ZM587.709,217.697c1.704-1.73,2.556-4.169,2.556-7.315,0-3.173-.852-5.651-2.556-7.435-1.705-1.782-4.157-2.674-7.356-2.674h-4.445v20.02h4.445c3.199,0,5.65-.866,7.356-2.597Z" style="fill:#fff;"/></g></svg>