<?xml version="1.0" encoding="UTF-8"?>
<svg id="Capa_1" xmlns="http://www.w3.org/2000/svg" version="1.1" viewBox="0 0 594.9 224.5">
  <!-- Generator: Adobe Illustrator 29.6.1, SVG Export Plug-In . SVG Version: 2.1.1 Build 9)  -->
  <path d="M108.6,131.1v31.4H0V0h36.6v131.1h72Z" style="fill: #ff204e;"/>
  <path d="M176.8,35.9c10.3,0,18.9,1.2,25.8,3.5,6.9,2.3,12.4,5.7,16.5,10.1,4.1,4.4,7.1,9.7,8.8,15.9,1.7,6.3,2.6,13.2,2.6,20.9v72.7c-5,1.1-12,2.4-20.9,3.9-8.9,1.5-19.7,2.2-32.4,2.2s-15.2-.7-21.7-2.1c-6.5-1.4-12.1-3.7-16.8-6.9-4.7-3.2-8.3-7.4-10.8-12.5-2.5-5.2-3.8-11.5-3.8-19s1.4-13.3,4.3-18.3c2.9-5,6.8-9,11.6-12,4.8-3,10.4-5.1,16.6-6.4,6.3-1.3,12.7-2,19.5-2s8.6.2,12.1.6c3.5.4,6.4.9,8.6,1.5v-3.3c0-5.9-1.8-10.7-5.4-14.3-3.6-3.6-9.8-5.4-18.8-5.4s-11.8.4-17.6,1.3c-5.8.9-10.8,2.1-15,3.6l-4.5-28.1c2-.6,4.6-1.3,7.6-2,3-.7,6.4-1.3,10-1.9,3.6-.5,7.4-1,11.4-1.4,4-.4,8-.6,12.1-.6h0ZM179.6,138.1c3.4,0,6.7,0,9.8-.2,3.1-.2,5.6-.4,7.5-.7v-26.5c-1.4-.3-3.5-.6-6.3-.9-2.8-.3-5.4-.5-7.7-.5s-6.4.2-9.3.6c-2.9.4-5.4,1.1-7.6,2.2-2.2,1.1-3.9,2.6-5.2,4.5-1.3,1.9-1.9,4.2-1.9,7,0,5.5,1.8,9.3,5.5,11.4,3.7,2.1,8.7,3.2,15.1,3.2h0Z" style="fill: #ff204e;"/>
  <path d="M367.4,158.3c-5.9,1.7-13.6,3.3-23,4.8-9.4,1.5-19.2,2.2-29.5,2.2s-19.2-1.4-26.1-4.2c-7-2.8-12.5-6.8-16.5-11.8-4.1-5.1-7-11.1-8.7-18.2-1.7-7-2.6-14.8-2.6-23.2V39.2h34.9v64.5c0,11.3,1.5,19.4,4.5,24.4,3,5,8.5,7.5,16.6,7.5s5.2-.1,8-.4c2.8-.2,5.3-.5,7.5-.8V39.2h34.9v119.1h0Z" style="fill: #ff204e;"/>
  <path d="M474.6,70.1c-3.1-.8-6.8-1.6-11-2.5-4.2-.9-8.8-1.3-13.6-1.3s-4.8.2-7.9.6c-3,.4-5.4.8-6.9,1.3v94.3h-34.9V45.7c6.3-2.2,13.6-4.3,22.2-6.2,8.5-2,18-2.9,28.5-2.9s4.1.1,6.8.4c2.7.2,5.3.5,8,.9,2.7.4,5.3.9,8,1.4,2.7.5,4.9,1.2,6.8,2l-5.9,28.8h0Z" style="fill: #ff204e;"/>
  <path d="M541.2,35.9c10.3,0,18.9,1.2,25.8,3.5,6.9,2.3,12.4,5.7,16.5,10.1,4.1,4.4,7.1,9.7,8.8,15.9,1.7,6.3,2.6,13.2,2.6,20.9v72.7c-5,1.1-12,2.4-20.9,3.9-8.9,1.5-19.7,2.2-32.4,2.2s-15.2-.7-21.7-2.1c-6.5-1.4-12.1-3.7-16.8-6.9-4.7-3.2-8.3-7.4-10.8-12.5-2.5-5.2-3.8-11.5-3.8-19s1.4-13.3,4.3-18.3c2.9-5,6.8-9,11.6-12,4.8-3,10.4-5.1,16.6-6.4,6.3-1.3,12.7-2,19.5-2s8.6.2,12.1.6c3.5.4,6.4.9,8.6,1.5v-3.3c0-5.9-1.8-10.7-5.4-14.3-3.6-3.6-9.8-5.4-18.8-5.4s-11.8.4-17.6,1.3c-5.8.9-10.8,2.1-15,3.6l-4.5-28.1c2-.6,4.6-1.3,7.6-2,3-.7,6.4-1.3,10-1.9,3.6-.5,7.4-1,11.4-1.4,4-.4,8-.6,12.1-.6h0ZM544,138.1c3.4,0,6.7,0,9.8-.2,3.1-.2,5.6-.4,7.5-.7v-26.5c-1.4-.3-3.5-.6-6.3-.9-2.8-.3-5.4-.5-7.7-.5s-6.4.2-9.3.6c-2.9.4-5.4,1.1-7.6,2.2-2.2,1.1-3.9,2.6-5.2,4.5-1.3,1.9-1.9,4.2-1.9,7,0,5.5,1.8,9.3,5.5,11.4,3.7,2.1,8.7,3.2,15.1,3.2h0Z" style="fill: #ff204e;"/>
  <g>
    <path d="M16.6,198.3c2.2,1.1,3.9,2.7,5.1,4.8,1.2,2.1,1.8,4.5,1.8,7.3s-.6,5.2-1.8,7.2c-1.2,2-2.9,3.6-5.1,4.7-2.2,1.1-4.7,1.6-7.6,1.6H0v-27.3h8.9c2.9,0,5.5.6,7.7,1.7h0ZM16.3,217.7c1.7-1.7,2.6-4.2,2.6-7.3s-.9-5.7-2.6-7.4c-1.7-1.8-4.2-2.7-7.4-2.7h-4.4v20h4.4c3.2,0,5.7-.9,7.4-2.6h0Z" style="fill: #27303e;"/>
    <path d="M36.3,200.2v8h9.4v3.7h-9.4v8.4h10.6v3.7h-15.1v-27.4h15.1v3.7h-10.6Z" style="fill: #27303e;"/>
    <path d="M60.4,223.3c-1.5-.6-2.6-1.6-3.5-2.7-.8-1.2-1.3-2.6-1.3-4.1h4.8c.1,1.2.6,2.2,1.4,2.9.8.8,2,1.1,3.5,1.1s2.8-.4,3.6-1.1c.9-.7,1.3-1.7,1.3-2.9s-.3-1.7-.8-2.2c-.5-.6-1.2-1-2-1.3-.8-.3-1.9-.7-3.3-1-1.8-.5-3.2-.9-4.3-1.4-1.1-.5-2.1-1.2-2.9-2.3-.8-1-1.2-2.4-1.2-4.1s.4-3,1.2-4.1c.8-1.2,1.9-2.1,3.3-2.7,1.4-.6,3.1-.9,4.9-.9,2.6,0,4.8.7,6.5,2,1.7,1.3,2.6,3.1,2.8,5.4h-5c0-1-.6-1.8-1.4-2.6-.9-.7-2-1.1-3.4-1.1s-2.3.3-3.1,1-1.2,1.6-1.2,2.8.3,1.5.8,2.1,1.2,1,1.9,1.3c.8.3,1.9.7,3.2,1,1.8.5,3.3,1,4.4,1.5,1.1.5,2.1,1.3,2.9,2.3.8,1,1.2,2.4,1.2,4.1s-.4,2.7-1.1,3.9c-.7,1.2-1.8,2.2-3.3,3-1.4.7-3.1,1.1-5.1,1.1s-3.5-.3-5-1h0Z" style="fill: #27303e;"/>
    <path d="M100.5,218.4h-11.4l-2,5.6h-4.7l9.8-27.4h5.2l9.8,27.4h-4.7l-2-5.6h0ZM99.3,214.7l-4.4-12.7-4.5,12.7h8.9Z" style="fill: #27303e;"/>
    <path d="M129.6,224l-6.3-10.9h-3.4v10.9h-4.5v-27.3h9.4c2.1,0,3.9.4,5.3,1.1,1.5.7,2.5,1.7,3.3,3,.7,1.2,1.1,2.6,1.1,4.1s-.5,3.4-1.6,4.9c-1,1.5-2.6,2.4-4.8,3l6.8,11.3h-5.4ZM119.9,209.4h5c1.7,0,2.9-.4,3.8-1.3.9-.8,1.3-2,1.3-3.4s-.4-2.5-1.3-3.3c-.8-.8-2.1-1.2-3.8-1.2h-5v9.2h0Z" style="fill: #27303e;"/>
    <path d="M158.4,224l-6.3-10.9h-3.4v10.9h-4.5v-27.3h9.4c2.1,0,3.9.4,5.3,1.1,1.5.7,2.5,1.7,3.3,3,.7,1.2,1.1,2.6,1.1,4.1s-.5,3.4-1.6,4.9c-1,1.5-2.6,2.4-4.8,3l6.8,11.3h-5.4ZM148.7,209.4h5c1.7,0,2.9-.4,3.8-1.3.9-.8,1.3-2,1.3-3.4s-.4-2.5-1.3-3.3c-.8-.8-2.1-1.2-3.8-1.2h-5v9.2h0Z" style="fill: #27303e;"/>
    <path d="M178.4,222.4c-2.1-1.2-3.8-2.9-5.1-5-1.2-2.1-1.9-4.5-1.9-7.2s.6-5.1,1.9-7.2,2.9-3.8,5.1-5c2.1-1.2,4.5-1.8,7-1.8s4.9.6,7.1,1.8,3.8,2.9,5.1,5c1.2,2.1,1.8,4.5,1.8,7.2s-.6,5.1-1.8,7.2c-1.2,2.1-2.9,3.8-5.1,5-2.1,1.2-4.5,1.8-7.1,1.8s-4.9-.6-7-1.8ZM190.3,219.1c1.4-.8,2.5-2,3.3-3.5.8-1.5,1.2-3.3,1.2-5.3s-.4-3.8-1.2-5.3c-.8-1.5-1.9-2.7-3.3-3.5-1.4-.8-3-1.2-4.8-1.2s-3.4.4-4.8,1.2-2.5,2-3.3,3.5c-.8,1.5-1.2,3.3-1.2,5.3s.4,3.8,1.2,5.3c.8,1.5,1.9,2.7,3.3,3.5,1.4.8,3,1.2,4.8,1.2s3.4-.4,4.8-1.2Z" style="fill: #27303e;"/>
    <path d="M212.2,220.3h9.2v3.6h-13.7v-27.3h4.5v23.7Z" style="fill: #27303e;"/>
    <path d="M233.6,220.3h9.2v3.6h-13.7v-27.3h4.5v23.7Z" style="fill: #27303e;"/>
    <path d="M256,222.4c-2.1-1.2-3.8-2.9-5.1-5-1.2-2.1-1.9-4.5-1.9-7.2s.6-5.1,1.9-7.2,2.9-3.8,5.1-5c2.1-1.2,4.5-1.8,7-1.8s4.9.6,7.1,1.8,3.8,2.9,5.1,5c1.2,2.1,1.8,4.5,1.8,7.2s-.6,5.1-1.8,7.2c-1.2,2.1-2.9,3.8-5.1,5-2.1,1.2-4.5,1.8-7.1,1.8s-4.9-.6-7-1.8ZM267.9,219.1c1.4-.8,2.5-2,3.3-3.5.8-1.5,1.2-3.3,1.2-5.3s-.4-3.8-1.2-5.3c-.8-1.5-1.9-2.7-3.3-3.5-1.4-.8-3-1.2-4.8-1.2s-3.4.4-4.8,1.2c-1.4.8-2.5,2-3.3,3.5-.8,1.5-1.2,3.3-1.2,5.3s.4,3.8,1.2,5.3c.8,1.5,1.9,2.7,3.3,3.5,1.4.8,3,1.2,4.8,1.2s3.4-.4,4.8-1.2Z" style="fill: #27303e;"/>
    <path d="M320.6,224l-3.4-3.4c-1.3,1.3-2.7,2.3-4.3,2.9-1.5.6-3.3,1-5.2,1s-3.7-.3-5.2-1c-1.5-.7-2.6-1.7-3.5-2.9-.8-1.3-1.2-2.7-1.2-4.4s.5-3.6,1.6-5.1c1.1-1.5,2.7-2.7,4.8-3.5-.8-.9-1.3-1.8-1.6-2.6-.3-.8-.5-1.7-.5-2.7s.3-2.3.9-3.2,1.5-1.7,2.7-2.2c1.2-.6,2.5-.8,4-.8s2.9.3,4,.9c1.1.6,1.9,1.4,2.4,2.4.5,1,.8,2.2.6,3.4h-4.5c0-1-.2-1.7-.7-2.3-.5-.5-1.2-.8-2-.8s-1.6.3-2.1.8-.8,1.1-.8,1.9.2,1.4.6,2.1,1.1,1.6,2.1,2.7l7.2,7.2,2.8-4.6h4.8l-3.5,6.1-1,1.6,6.6,6.6h-5.9ZM314.3,217.6l-7.2-7.3c-3.1,1.2-4.6,3.1-4.6,5.6s.5,2.5,1.5,3.4c1,.9,2.3,1.4,3.9,1.4,2.5,0,4.6-1,6.5-3h0Z" style="fill: #27303e;"/>
    <path d="M351.6,223.3c-1.5-.6-2.6-1.6-3.5-2.7-.8-1.2-1.3-2.6-1.3-4.1h4.8c.1,1.2.6,2.2,1.4,2.9.8.8,2,1.1,3.5,1.1s2.8-.4,3.6-1.1c.9-.7,1.3-1.7,1.3-2.9s-.3-1.7-.8-2.2c-.5-.6-1.2-1-2-1.3-.8-.3-1.9-.7-3.3-1-1.8-.5-3.2-.9-4.3-1.4-1.1-.5-2.1-1.2-2.9-2.3-.8-1-1.2-2.4-1.2-4.1s.4-3,1.2-4.1c.8-1.2,1.9-2.1,3.3-2.7,1.4-.6,3.1-.9,4.9-.9,2.6,0,4.8.7,6.5,2,1.7,1.3,2.6,3.1,2.8,5.4h-5c0-1-.6-1.8-1.4-2.6-.9-.7-2-1.1-3.4-1.1s-2.3.3-3.1,1-1.2,1.6-1.2,2.8.3,1.5.8,2.1,1.2,1,1.9,1.3c.8.3,1.9.7,3.2,1,1.8.5,3.3,1,4.4,1.5,1.1.5,2.1,1.3,2.9,2.3.8,1,1.2,2.4,1.2,4.1s-.4,2.7-1.1,3.9c-.7,1.2-1.8,2.2-3.3,3-1.4.7-3.1,1.1-5.1,1.1s-3.5-.3-5-1h0Z" style="fill: #27303e;"/>
    <path d="M379.7,200.2v8h9.4v3.7h-9.4v8.4h10.6v3.7h-15.1v-27.4h15.1v3.7h-10.6Z" style="fill: #27303e;"/>
    <path d="M419.5,204.5c-.7-1.4-1.7-2.4-3-3.1-1.3-.7-2.7-1-4.4-1s-3.4.4-4.8,1.2-2.5,2-3.3,3.5c-.8,1.5-1.2,3.2-1.2,5.2s.4,3.7,1.2,5.2c.8,1.5,1.9,2.7,3.3,3.5,1.4.8,3,1.2,4.8,1.2s4.4-.7,5.9-2c1.5-1.4,2.5-3.2,2.8-5.5h-10.3v-3.6h15.1v3.5c-.3,2.1-1,4.1-2.3,5.9-1.2,1.8-2.8,3.2-4.8,4.3s-4.1,1.6-6.5,1.6-4.9-.6-7-1.8c-2.1-1.2-3.8-2.9-5.1-5s-1.9-4.5-1.9-7.2.6-5.1,1.9-7.2,2.9-3.8,5.1-5c2.1-1.2,4.5-1.8,7-1.8s5.5.7,7.8,2.1c2.3,1.4,3.9,3.5,4.9,6.1h-5.4,0Z" style="fill: #27303e;"/>
    <path d="M438.5,196.6v17.4c0,2.1.5,3.6,1.6,4.7,1.1,1,2.6,1.6,4.5,1.6s3.5-.5,4.6-1.6,1.6-2.6,1.6-4.7v-17.4h4.5v17.3c0,2.2-.5,4.1-1.5,5.7-1,1.5-2.3,2.7-3.9,3.5-1.6.8-3.4,1.1-5.4,1.1s-3.8-.4-5.4-1.1c-1.6-.8-2.9-1.9-3.8-3.5-.9-1.5-1.4-3.4-1.4-5.7v-17.3h4.5,0Z" style="fill: #27303e;"/>
    <path d="M479.3,224l-6.3-10.9h-3.4v10.9h-4.5v-27.3h9.4c2.1,0,3.9.4,5.3,1.1,1.5.7,2.5,1.7,3.3,3,.7,1.2,1.1,2.6,1.1,4.1s-.5,3.4-1.6,4.9c-1,1.5-2.6,2.4-4.8,3l6.8,11.3h-5.4ZM469.6,209.4h5c1.7,0,2.9-.4,3.8-1.3.9-.8,1.3-2,1.3-3.4s-.4-2.5-1.3-3.3c-.8-.8-2.1-1.2-3.8-1.2h-5v9.2h0Z" style="fill: #27303e;"/>
    <path d="M498.4,196.6v27.3h-4.5v-27.3h4.5Z" style="fill: #27303e;"/>
    <path d="M524.8,198.3c2.2,1.1,3.9,2.7,5.1,4.8,1.2,2.1,1.8,4.5,1.8,7.3s-.6,5.2-1.8,7.2c-1.2,2-2.9,3.6-5.1,4.7-2.2,1.1-4.7,1.6-7.7,1.6h-8.9v-27.3h8.9c2.9,0,5.5.6,7.7,1.7h0ZM524.5,217.7c1.7-1.7,2.6-4.2,2.6-7.3s-.9-5.7-2.6-7.4c-1.7-1.8-4.2-2.7-7.4-2.7h-4.4v20h4.4c3.2,0,5.7-.9,7.4-2.6h0Z" style="fill: #27303e;"/>
    <path d="M556.6,218.4h-11.4l-2,5.6h-4.7l9.8-27.4h5.2l9.8,27.4h-4.7l-2-5.6h0ZM555.3,214.7l-4.4-12.7-4.5,12.7h8.9Z" style="fill: #27303e;"/>
    <path d="M588,198.3c2.2,1.1,3.9,2.7,5.1,4.8,1.2,2.1,1.8,4.5,1.8,7.3s-.6,5.2-1.8,7.2c-1.2,2-2.9,3.6-5.1,4.7-2.2,1.1-4.7,1.6-7.7,1.6h-8.9v-27.3h8.9c2.9,0,5.5.6,7.7,1.7h0ZM587.7,217.7c1.7-1.7,2.6-4.2,2.6-7.3s-.9-5.7-2.6-7.4c-1.7-1.8-4.2-2.7-7.4-2.7h-4.4v20h4.4c3.2,0,5.7-.9,7.4-2.6h0Z" style="fill: #27303e;"/>
  </g>
</svg>